<?xml version="1.0" encoding="utf-8"?>
<!-- Generator: Adobe Illustrator 23.0.1, SVG Export Plug-In . SVG Version: 6.00 Build 0)  -->
<svg version="1.1" id="Layer_1" xmlns="http://www.w3.org/2000/svg" xmlns:xlink="http://www.w3.org/1999/xlink" x="0px" y="0px"
	 viewBox="0 0 144.8 120.1" style="enable-background:new 0 0 144.8 120.1;" xml:space="preserve">
<style type="text/css">
	.st0{enable-background:new    ;}
	.st1{fill:none;stroke:#496AEF;stroke-miterlimit:10;}
</style>
<g class="st0">
	<path class="st1" d="M0.5,32.5h27.9v6.9H8.7v9H26v6.8H8.7v16.4H0.5V32.5z"/>
	<path class="st1" d="M54.4,68c-2.4,3-6.2,4.5-11.1,4.5c-5,0-8.7-1.5-11.1-4.5s-3.7-6.6-3.7-10.9c0-4.2,1.2-7.8,3.7-10.8
		c2.4-3.1,6.1-4.6,11.1-4.6c5,0,8.7,1.5,11.1,4.6c2.4,3.1,3.7,6.7,3.7,10.8C58.1,61.4,56.8,65,54.4,68z M48.3,63.8
		c1.2-1.6,1.8-3.8,1.8-6.7c0-2.9-0.6-5.1-1.8-6.7c-1.2-1.6-2.9-2.3-5.1-2.3s-3.9,0.8-5.1,2.3c-1.2,1.6-1.8,3.8-1.8,6.7
		c0,2.9,0.6,5.1,1.8,6.7c1.2,1.6,2.9,2.4,5.1,2.4S47.2,65.4,48.3,63.8z"/>
	<path class="st1" d="M96.7,42.7c1.2,0.5,2.4,1.4,3.4,2.6c0.8,1,1.4,2.2,1.6,3.7c0.2,1,0.3,2.4,0.3,4.3l-0.1,18.2h-7.8V53.1
		c0-1.1-0.2-2-0.5-2.7c-0.7-1.3-1.9-2-3.7-2c-2.1,0-3.5,0.9-4.3,2.6c-0.4,0.9-0.6,2-0.6,3.3v17.2h-7.6V54.3c0-1.7-0.2-3-0.5-3.7
		c-0.6-1.4-1.9-2.1-3.7-2.1c-2.2,0-3.6,0.7-4.4,2.1c-0.4,0.8-0.6,2-0.6,3.6v17.4h-7.7V42.7h7.4v4.2c0.9-1.5,1.8-2.6,2.7-3.2
		c1.5-1.1,3.4-1.7,5.7-1.7c2.2,0,4,0.5,5.4,1.5c1.1,0.9,1.9,2.1,2.5,3.5c1-1.7,2.2-2.9,3.7-3.7c1.6-0.8,3.3-1.2,5.2-1.2
		C94.2,42,95.5,42.2,96.7,42.7z"/>
	<path class="st1" d="M130.2,68c-2.4,3-6.2,4.5-11.1,4.5c-5,0-8.7-1.5-11.1-4.5s-3.7-6.6-3.7-10.9c0-4.2,1.2-7.8,3.7-10.8
		c2.4-3.1,6.2-4.6,11.1-4.6c5,0,8.7,1.5,11.1,4.6c2.4,3.1,3.7,6.7,3.7,10.8C133.8,61.4,132.6,65,130.2,68z M124.1,63.8
		c1.2-1.6,1.8-3.8,1.8-6.7c0-2.9-0.6-5.1-1.8-6.7c-1.2-1.6-2.9-2.3-5.1-2.3c-2.2,0-3.9,0.8-5.1,2.3c-1.2,1.6-1.8,3.8-1.8,6.7
		c0,2.9,0.6,5.1,1.8,6.7c1.2,1.6,2.9,2.4,5.1,2.4C121.2,66.2,122.9,65.4,124.1,63.8z"/>
	<path class="st1" d="M136.2,63.6h8v7.9h-8V63.6z"/>
</g>
</svg>
