<svg xmlns="http://www.w3.org/2000/svg" viewBox="0 0 431.064 303.541"><defs><style>.a,.b,.d{fill:none;}.a{stroke:#496aef;}.c{fill:#fff;}.d{stroke:#fff;stroke-miterlimit:10;}.e{fill:#afafaf;}.f{fill:#5f5f5f;}.g{fill:#2b2b2b;}.h{fill:#989898;}</style></defs><g transform="translate(-57.262 0)"><rect class="a" width="203.729" height="103.148" transform="translate(249.958 52.6)"/><path class="b" d="M576.17,218.463,636.673,142l20.573,40.027,14.928,36.435" transform="translate(-280.514 -69.13)"/><path class="b" d="M780.034,232.581,746.164,171l-13.23,29.266-5.645,32.571h52.769" transform="translate(-354.083 -83.248)"/><path class="b" d="M771.912,335.219A15.4,15.4,0,1,0,758,308.144" transform="translate(-397.997 -227.75)"/><circle class="a" cx="3.592" cy="3.592" r="3.592" transform="translate(63.677 4.362)"/><circle class="a" cx="3.592" cy="3.592" r="3.592" transform="translate(75.993 4.362)"/><circle class="a" cx="3.592" cy="3.592" r="3.592" transform="translate(88.309 4.362)"/><rect class="a" width="149.333" height="10.263" transform="translate(60.855 63.12)"/><rect class="a" width="149.333" height="10.263" transform="translate(60.855 90.831)"/><rect class="a" width="149.333" height="10.263" transform="translate(60.855 118.543)"/><rect class="a" width="357.681" height="63.12" transform="translate(75.993 183.459)"/><path class="c" d="M599.124,434.442H168.06V154.25H599.124Zm-430.551-.513H598.611V154.763H168.573Z" transform="translate(-110.798 -154.25)"/><rect class="c" width="430.551" height="0.513" transform="translate(57.519 14.148)"/><circle class="d" cx="3.592" cy="3.592" r="3.592" transform="translate(64.447 3.079)"/><circle class="d" cx="3.592" cy="3.592" r="3.592" transform="translate(76.763 3.079)"/><circle class="d" cx="3.592" cy="3.592" r="3.592" transform="translate(89.079 3.079)"/><path class="c" d="M331.406,281.527H181.56V270.75H331.406Zm-149.333-.513h148.82v-9.75H182.073Z" transform="translate(-117.37 -210.965)"/><path class="c" d="M331.406,335.527H181.56V324.75H331.406Zm-149.333-.513h148.82v-9.75H182.073Z" transform="translate(-117.37 -237.254)"/><path class="c" d="M331.406,389.527H181.56V378.75H331.406Zm-149.333-.513h148.82v-9.75H182.073Z" transform="translate(-117.37 -263.543)"/><path class="c" d="M779.8,347.411H575.56V243.75H779.8ZM576.073,346.9H779.289V244.263H576.073Z" transform="translate(-309.18 -197.821)"/><path class="c" d="M591.176,214.726l-.426-.287,55.1-80.409L687.2,214.465l-.457.236-40.951-79.675Z" transform="translate(-287.612 -65.25)"/><path class="c" d="M794.589,228.785l-39.263-64.757L742.3,192.853l-.472-.21,13.43-29.713,39.771,65.589Z" transform="translate(-361.161 -79.319)"/><path class="c" d="M775.848,328.232l-.164-.488A15.139,15.139,0,1,0,762,301.116l-.3-.416a15.652,15.652,0,1,1,14.148,27.532Z" transform="translate(-399.798 -224.109)"/><path class="c" d="M596.754,560.383H238.56V496.75H596.754Zm-357.681-.513H596.241V497.263H239.073Z" transform="translate(-145.119 -320.989)"/><path class="c" d="M204.079,686.382a13.8,13.8,0,0,1-2.6,1.114c-1.606.436-3.33.277-4.957.652a2.033,2.033,0,0,0-1.6,1.129,2.314,2.314,0,0,0,.174,1.463c1.8,5.27,2.879,10.869,5.748,15.641a23.7,23.7,0,0,0,4.439,5.388,4.244,4.244,0,0,0,2.263,1.252,2.294,2.294,0,0,0,2.335-3.228c-.257-.57-.734-1.026-1.026-1.539a5.834,5.834,0,0,1-.575-2.217c-.287-2.253-.559-4.619.221-6.743a22.044,22.044,0,0,1,2.289-3.946,6.916,6.916,0,0,0,1.288-4.3,7.513,7.513,0,0,0-1.16-2.874c-.513-.893-1.586-3.3-2.658-3.592S205.049,685.885,204.079,686.382Z" transform="translate(-123.852 -412.415)"/><path class="c" d="M267.886,717.651a4.357,4.357,0,0,1-.21,1.5c-.334.888-1.165,1.493-1.6,2.34a5.156,5.156,0,0,0,.072,3.849,3.931,3.931,0,0,0,1.237,2.094,4.105,4.105,0,0,0,1.888.6c5.722.8,11.531.339,17.3.513a6.156,6.156,0,0,0,3.079-.452,1.948,1.948,0,0,0,.862-2.653c-.559-.76-1.673-.754-2.617-.8a10.777,10.777,0,0,1-6.64-2.74,4.711,4.711,0,0,1-.929-1.067,6.2,6.2,0,0,1-.513-1.119,49.778,49.778,0,0,0-2.879-6.379,3.387,3.387,0,0,0-1.242-1.483,3.234,3.234,0,0,0-1.345-.293c-1.437-.092-5.163-.585-6.276.513C267.1,713.14,267.922,716.317,267.886,717.651Z" transform="translate(-158.347 -425.477)"/><path class="c" d="M9.191,0A9.191,9.191,0,1,1,0,9.191,9.191,9.191,0,0,1,9.191,0Z" transform="translate(109.201 146.049)"/><path class="c" d="M268.322,467.5a6.882,6.882,0,0,1-2.822,3.623l12.711,2.6a13.46,13.46,0,0,1-.18-5.671,3.223,3.223,0,0,0,.077-1.4c-.241-.924-1.278-1.365-2.207-1.581a28.568,28.568,0,0,1-6.528-1.837C268.723,464.369,268.836,466.2,268.322,467.5Z" transform="translate(-158.234 -304.675)"/><path class="e" d="M254.376,471.07a9.93,9.93,0,0,1,8.662.226,19.593,19.593,0,0,1,4.3,3.433c1.221,1.18,2.525,2.53,2.612,4.223a11.978,11.978,0,0,1-.339,2.427,8.18,8.18,0,0,0,4.372,8.4,10.956,10.956,0,0,1,1.232,5.681c.062,7.431-2.284,14.954-.611,22.2.39,1.7,1,3.346,1.339,5.055.441,2.217.421,4.5.652,6.748a30.085,30.085,0,0,0,1.622,7.133,2.966,2.966,0,0,1-2.74,1.144,7.7,7.7,0,0,1-2.93-1c-4.48-2.289-8.585-5.311-13.224-7.261-3.079-1.288-6.338-2.089-9.314-3.592s-5.748-3.854-6.671-7.056a16.377,16.377,0,0,1-.441-4.28c-.092-6.061-.174-12.188,1.144-18.1,1.165-5.219,3.407-10.212,3.895-15.534.159-1.735.164-3.592,1.134-5.034C250.445,473.857,253.4,473.328,254.376,471.07Z" transform="translate(-147.208 -308.056)"/><path class="f" d="M267.592,443.7a2.363,2.363,0,0,1,2.448-.6c.862.21,1.663.657,2.566.826a1.483,1.483,0,0,0,1.185-.169,1.719,1.719,0,0,0,.513-1.129,21.593,21.593,0,0,0,.21-5.517,1.694,1.694,0,0,1,.051-.77c.216-.513.878-.647,1.416-.816a4.218,4.218,0,0,0,2.858-4.321,1.714,1.714,0,0,0-.513-1.185,2.186,2.186,0,0,0-1.375-.328q-3.71-.031-7.41,0a5.332,5.332,0,0,0-2.668.482,13.8,13.8,0,0,0-1.54,1.3c-1.37,1.108-3.228,1.334-4.9,1.9a4.768,4.768,0,0,0-2.145,1.278,2.273,2.273,0,0,0-.477,2.345,8.309,8.309,0,0,0,.6.919c.985,1.575.328,3.618.477,5.47.185,2.309,3.592,6.061,5.922,6.6C268.516,450.883,266.351,445.238,267.592,443.7Z" transform="translate(-154.425 -288.336)"/><path d="M265.2,639.2a27.349,27.349,0,0,1,.457,5.08c-.113,2.381-.97,4.67-1.129,7.041-.118,1.776.159,3.592-.087,5.327-.159,1.129-.513,2.212-.754,3.331a13.753,13.753,0,0,0,2.212,10.546,1.787,1.787,0,0,0,.641.626,1.884,1.884,0,0,0,.8.1,57.861,57.861,0,0,0,7.985-.724.775.775,0,0,0,.513-.226.723.723,0,0,0,.113-.3c.513-2.52-.626-5.045-.908-7.59a23.6,23.6,0,0,1,1-8.108,35.954,35.954,0,0,1,1.1-3.88c.313-.852.693-1.683.965-2.566a19.568,19.568,0,0,0,.7-4.187q.287-3.356.3-6.723a28,28,0,0,0-.513-6.348,34,34,0,0,0-3.028-7.523,4.789,4.789,0,0,0-1.781.847,39.1,39.1,0,0,1-4.87,2.689c-1.129.513-3.336.9-4.054,2s-.251,3.279-.2,4.47Q264.779,636.166,265.2,639.2Z" transform="translate(-157.225 -382.49)"/><path d="M231.234,584.25c-1.221,3.289.575,6.835,2.135,9.976,3.839,7.734,6.5,15.985,9.155,24.206a2.956,2.956,0,0,1,.174,1.894,2.479,2.479,0,0,1-.893,1.062c-1.827,1.386-4.157,1.883-6.338,2.607a28.6,28.6,0,0,0-6,2.817,53.962,53.962,0,0,0-4.531,3.233l-4.7,3.592a3.248,3.248,0,0,0-.785.759,3.081,3.081,0,0,0-.041,2.453,41.383,41.383,0,0,0,2.3,6.286,2.191,2.191,0,0,0,.836,1.093c.734.4,1.627-.128,2.186-.744s1.026-1.38,1.837-1.647,1.652.056,2.479-.062c1.329-.185,2.217-1.411,3.177-2.35,3.921-3.849,10.469-3.592,14.779-6.974a18.9,18.9,0,0,1,1.976-1.539,23.985,23.985,0,0,1,2.314-1.026,9.806,9.806,0,0,0,4.521-6.009c.775-2.458,1-5.055,1.54-7.569a33,33,0,0,0,.8-3.91,20.738,20.738,0,0,0-.082-3.7l-1.539-19.259c-.128-1.54-.251-3.135-.513-4.69-4.619.169-9.237.354-13.856.411C238.475,585.148,234.729,585.415,231.234,584.25Z" transform="translate(-135.679 -363.586)"/><path class="g" d="M238.946,585.813c.626,1.026,2.155.99,3.2.436s1.868-1.483,2.925-2.053a9.491,9.491,0,0,1,4.685-.662,30.484,30.484,0,0,1,7.513.842c2.509.713,4.957,2.094,7.559,1.817a1.54,1.54,0,0,0,1.191-.559,1.735,1.735,0,0,0,.2-.9l.087-2.273a2.083,2.083,0,0,0-.18-1.15,1.934,1.934,0,0,0-.862-.657c-3.7-1.791-7.918-2.125-12.024-2.268q-3.135-.108-6.266-.087c-1.776,0-3.905-.246-5.645.231C239.033,579.2,237.771,583.939,238.946,585.813Z" transform="translate(-145.089 -360.658)"/><path class="e" d="M261.685,474c-4.844-.041-9.237-3.243-14.087-3.32a3.592,3.592,0,0,0-1.709.3,6.4,6.4,0,0,0-1.632,1.539c-1.432,1.539-3.51,2.381-4.978,3.895a5.781,5.781,0,0,0-1.606,5.44,4.047,4.047,0,0,0,4.531,2.91,11.649,11.649,0,0,1,4.547-6.158,22.7,22.7,0,0,1,3.551-1.863c2.181-.99,4.619-2,6.887-1.257a9.787,9.787,0,0,1,2.35,1.283l3.792,2.566A25.616,25.616,0,0,0,261.685,474Z" transform="translate(-144.602 -308.293)"/><path class="f" d="M239.185,486.827c-.647.8.282,1.965.139,2.982-.092.677-.647,1.2-.883,1.837a9.744,9.744,0,0,0-.2,2.109,8.985,8.985,0,0,1-.405,1.5,26.6,26.6,0,0,0-.852,4.449l-.852,6.333a24.7,24.7,0,0,0-.267,2.879,8.632,8.632,0,0,1-.144,2.155,14.818,14.818,0,0,1-.883,1.955,2.3,2.3,0,0,0-.031,2.053,3.592,3.592,0,0,0-.76,4.511,2.391,2.391,0,0,1,.39.718,1.837,1.837,0,0,1-.169,1.062l-.857,2.284c-.221.585-.293,1.478.318,1.611a5.306,5.306,0,0,0-1.155,1.827,2.171,2.171,0,0,0,.308,2.053,2.7,2.7,0,0,1,.513.652,1.745,1.745,0,0,1-.067,1.026,3.772,3.772,0,0,0,.467,2.956,2.653,2.653,0,0,0,2.674,1.144c1.714-.385,3.259-1,4.988-.677a89.3,89.3,0,0,1,11.069,2.52c4.105,1.314,8.1,3.243,12.408,3.649a1.216,1.216,0,0,0,.831-.128,1.257,1.257,0,0,0,.38-.79l1.329-6.235a63.426,63.426,0,0,0,1.226-6.989c.149-1.514.2-3.038.236-4.562l.344-12.126a12.1,12.1,0,0,0-.672-5.24l-1.971-6.291c-1.129-3.592-3.71-6.779-4.619-10.428-.58-2.314-1.026-4.793-2.566-6.594-2.222-2.566-6.071-2.966-9.437-2.525a11.249,11.249,0,0,0-4.372,1.334,14.082,14.082,0,0,0-3.726,3.751C241.007,484.753,240.1,485.682,239.185,486.827Z" transform="translate(-142.142 -312.03)"/><path class="c" d="M260.6,556.907c.277,1.2.862,2.3,1.216,3.474.6,1.971.549,4.105,1.144,6.061.251.826.616,1.616.8,2.463a10.236,10.236,0,0,1-.954,5.871,22.935,22.935,0,0,0-1.93,5.7,4.354,4.354,0,0,0,1.16,3.91c1.088.913,2.761.888,4.229.76a4.431,4.431,0,0,0,1.54-.318c1.124-.513,1.6-1.858,1.858-3.079.878-4.064.626-8.277.375-12.429l-.657-10.854a25.279,25.279,0,0,0-.908-6.23c-.236-.729-.641-2.207-1.309-2.669s-2.566-.482-3.366-.513C259.941,548.865,259.982,554.223,260.6,556.907Z" transform="translate(-155.698 -346.45)"/><path class="h" d="M261.9,486.032a2.658,2.658,0,0,0-2.53.226,7.754,7.754,0,0,0-1.894,1.837c-1.693,2.053-3.484,4.439-3.233,7.1a17.445,17.445,0,0,0,.734,2.9c1.134,4.244-.123,8.724,0,13.122a41.568,41.568,0,0,0,1.206,7.528c.113.513.293,1.088.785,1.257a1.678,1.678,0,0,0,1.124-.174,9.011,9.011,0,0,1,8.236,1.026c.908-.482.57-2.017.364-3.023-.606-3,.216-6.1,1.211-8.991s2.2-5.778,2.361-8.837c.185-3.459-.96-6.841-2.094-10.115a3.264,3.264,0,0,0-2.74-2.715A18.814,18.814,0,0,1,261.9,486.032Z" transform="translate(-152.744 -315.664)"/><rect class="c" width="84.16" height="0.513" transform="translate(66.243 303.028)"/><path class="b" d="M755,311.026,757.053,310l14.518,27.116-2.2.6-7.7-2.566s-5.132-8.724-5.132-9.237S755,311.026,755,311.026Z" transform="translate(-396.536 -230.073)"/></g></svg>