<svg xmlns="http://www.w3.org/2000/svg" viewBox="0 0 144.821 120.124"><defs><style>.a{fill:none;stroke:#496aef;stroke-miterlimit:10;}</style></defs><g transform="translate(0.002 0)"><path class="a" d="M1045.42,370.693a23.674,23.674,0,0,0-3.451.229c-4.641.728-6.382,2.134-8.02,5.721-1.059,2.315-3.188,9.328-4.889,18.262q-4.993-.2-9.987-.573c-1.159-12.552-3.83-64.795-3.9-82.722,1.882-.143,3.878-.335,6.08-.44,1.332,8.281,5.768,37.157,9.4,46.235,1.61,4.052,4.42,5.425,7.868,5.732a115.021,115.021,0,0,0,13.81,0c3.435-.307,6.245-1.684,7.855-5.732,3.622-9.077,8.059-37.94,9.4-46.235,2.2.115,4.206.3,6.08.44-.074,17.936-2.736,70.17-3.91,82.722-2.975.229-6.408.421-9.987.573-1.7-8.944-3.83-15.947-4.889-18.262-1.627-3.587-3.368-4.993-8.02-5.721a23.464,23.464,0,0,0-3.442-.229" transform="translate(-973.007 -293.257)"/><path class="a" d="M908.545,355.673c-11.627,0-38.205-.713-46.953-2.352-9.3-1.744-15.57-7.078-18.645-15.848-2.63-7.479-4.56-21.366-5.767-41.28a243.713,243.713,0,0,1,.032-33.272c1.321-16.332,8.862-22.842,24.636-24.627,10.544-1.176,34.11-1.744,46.7-1.744s36.151.57,46.674,1.754c15.771,1.784,23.328,8.294,24.638,24.627A242.065,242.065,0,0,1,979.9,296.2c-1.187,19.912-3.126,33.8-5.757,41.28-3.084,8.769-9.347,14.092-18.664,15.848-8.718,1.628-35.305,2.341-46.934,2.341Zm45.6-9.45a17.482,17.482,0,0,0,13.176-11.143c1.649-4.716,3.93-15.354,5.364-39.334a232.606,232.606,0,0,0-.03-32.262c-.887-11.082-6.48-16.693-18.242-18.025-10.261-1.155-33.443-1.691-45.87-1.691s-35.615.536-45.882,1.71c-11.76,1.33-17.352,6.943-18.242,18.023a236.054,236.054,0,0,0-.019,32.262c1.433,23.979,3.713,34.6,5.364,39.334a17.511,17.511,0,0,0,13.164,11.143c7.356,1.372,31.53,2.229,45.623,2.229s38.256-.857,45.6-2.238" transform="translate(-836.13 -236.05)"/></g></svg>