<?xml version="1.0" encoding="utf-8"?>
<!-- Generator: Adobe Illustrator 23.0.1, SVG Export Plug-In . SVG Version: 6.00 Build 0)  -->
<svg version="1.1" id="Layer_1" xmlns="http://www.w3.org/2000/svg" xmlns:xlink="http://www.w3.org/1999/xlink" x="0px" y="0px"
	 viewBox="0 0 232.8 193.1" style="enable-background:new 0 0 232.8 193.1;" xml:space="preserve">
<style type="text/css">
	.st0{fill:#496AEF;}
</style>
<g>
	<path class="st0" d="M0.2,105.7c0.8-1,2.4-1.8,2.6-2.7c0.6-4.2,1-8.4,1.1-12.7c0-1-1.6-2.1-2.4-2.9c4.5-1.6,5.8-1.1,7.6,3.2
		c1.4,3.4,2.9,6.6,4.7,10.8c1.9-4,3.7-7.4,5.3-10.6c2.1-4,2.4-4.2,8.4-3.7c-5.8,1.9-3.4,6.3-3.5,9.5c0,3.4-2.4,7.4,2.9,10
		c-3.5,0-6.3,0-9.5,0c5.6-3.9,2.6-9,3.4-13.3c-0.3-0.2-0.6-0.3-1-0.5c-2.4,4.5-4.7,9-7.2,13.8c-2.2-5-4.5-9.6-6.7-14.5
		c-0.5,0-0.8,0-1.3,0c0,3.9-0.2,7.7,0.2,11.6c0,0.8,1.6,1.6,3.1,2.7c-2.9,0-5.1,0-7.6,0C0.2,106.2,0.2,106,0.2,105.7z"/>
	<path class="st0" d="M232.8,99.9c-4.2,8.5-11.9,6.7-19.6,6.6c3.7-2.4,4.5-15.9,1.6-19.3c10.6-2.1,13.8-0.8,18,6.9
		C232.8,96.1,232.8,98,232.8,99.9z M219.1,88.5c0,5-0.2,10.1,0,15.3c0,2.4,1.9,2.1,3.5,1.8c4.7-1,7.2-5,6.6-10.1
		C228.6,90.6,225.2,88,219.1,88.5z"/>
	<path class="st0" d="M164.4,101.2c-0.3-1-0.5-1.9-0.8-3.2c-1.3,0-2.7,0-5,0c0.5,2.7,0.2,5.8,1.6,7.2c1.9,1.9,8-0.2,10.6-2.9
		c0.2,0.3,0.3,0.6,0.3,1c0,1,0,1.9,0,3.4c-5.8,0-11.4,0-16.5,0c0.5-1.6,1.3-3.4,1.4-5.1c0.3-2.6,0-5.3,0.2-8
		c0.2-2.6,0.6-5.5-3.7-5.6c0.2-0.3,0.3-0.8,0.5-1.1c2.4,0,5,0,7.4,0c1.4,0,2.9,0.2,4.3,0c3.7-0.3,4.8,1.4,4,5.3
		c-2.2-3.4-5.3-4.5-9.3-3.4c0,2.2,0,4.7,0,6.9c3.5,1.9,4.5-0.5,5.9-2.9c0,2.7,0,5.6,0,8.4C164.8,101,164.7,101,164.4,101.2z"/>
	<path class="st0" d="M96.4,106c0-1.8,0-3.7,0-6.6c1.3,1.9,1.6,3.5,2.7,4.2c1.4,0.8,3.4,1.3,5,1.1c0.8-0.2,2.2-2.1,2.1-2.9
		c-0.5-1.3-1.8-2.4-2.9-3.2c-1-0.6-2.2-0.8-3.4-1.3c-2.7-1.1-4.2-3.2-3.4-6.3s3.7-4.5,6.7-3.9c1.4,0.3,2.9,0.5,4.7,0.8
		c0,1.3-0.2,2.9-0.3,5.6c-1.4-1.8-1.9-3.1-2.9-3.5c-1.3-0.8-2.7-1.3-4.2-1.3c-0.6,0-1.9,1.8-1.8,2.2c0.6,1.1,1.6,2.2,2.7,3.1
		c1,0.6,2.2,0.8,3.4,1.4c3.5,1.8,4.8,4.2,3.9,7.2c-1,2.7-3.9,4.5-7.2,4C99.6,106.5,98,106.2,96.4,106z"/>
	<path class="st0" d="M193.9,87.2c2.9,6.7,2.9,13.8,7.2,19.4c-2.2,0-4.7,0-7.6,0c2.4-1.8,3.2-4.3,0.6-6.1c-1.1-0.8-4.2-0.3-5.3,0.6
		c-1.6,1.4-1.8,3.9,1.6,5.1c-3.2,0-5.5,0-7.4,0c1.3-2.2,2.9-4.3,3.9-6.7c1.6-3.5,2.6-7.2,4.2-10.8C191.7,88.2,192.8,87.9,193.9,87.2
		z M192.6,92.7c-0.3,0-0.6,0-1,0c-0.6,1.8-1.1,3.7-1.8,5.6c1.6,0,2.9,0,4.5,0C193.8,96.2,193.1,94.5,192.6,92.7z"/>
	<path class="st0" d="M83.1,100.7c-0.2,1.8-0.5,3.7-0.6,5.6c-6.4,0-12.5,0-18.8,0c0-0.2-0.2-0.3-0.2-0.6c1.1-0.6,2.7-1,3.1-1.9
		c0.5-1.1,0.2-2.9,0.2-4.3c0-2.9,0.5-5.8,0.2-8.7c-0.2-1.3-1.6-2.4-2.9-4c2.9-0.2,6.3-0.5,9.5-0.6c0.2,0.3,0.5,0.6,0.6,1
		c-4.8,0.5-4.2,3.5-4,6.4c0.2,3.5,0,7.2,0,11.1c5,0.2,10,1.9,12.4-4.8C82.6,100.2,82.7,100.4,83.1,100.7z"/>
	<path class="st0" d="M139.6,86.9c0,1.3,0,2.9,0,4.7c-1.1-0.8-1.9-1.9-3.1-2.2c-2.1-0.8-3.9-0.3-3.9,2.6c0,3.2,0,6.3-0.2,9.5
		c-0.2,2.2-0.3,4.5,2.9,5c-3.1,0-6.1,0-9.2,0c3.9-1,3.5-3.9,3.4-6.6c-0.2-2.2,0.3-4.7,0.2-6.9c-0.2-1.3-0.8-3.4-1.3-3.5
		c-1.4-0.2-3.1,0.6-4.5,1.3c-0.5,0.2-0.5,1.1-0.8,1.6c-0.3-0.2-0.6-0.5-1-0.6c0.3-1.6,0.6-3.2,0.8-4.5
		C128.5,86.9,134,86.9,139.6,86.9z"/>
	<path class="st0" d="M50.1,107c-3.9-0.2-6.6-0.3-8.8-0.5c0.6-1.6,1.6-3.4,1.9-5.1c0.5-3.4,0.8-6.7,0.6-10.1c0-1.3-1.6-2.6-2.4-4
		c2.6,0,5.6,0,9,0C45.5,90.6,45,104.1,50.1,107z"/>
</g>
</svg>
