<?xml version="1.0" encoding="utf-8"?>
<!-- Generator: Adobe Illustrator 23.0.1, SVG Export Plug-In . SVG Version: 6.00 Build 0)  -->
<svg version="1.1" id="Layer_1" xmlns="http://www.w3.org/2000/svg" xmlns:xlink="http://www.w3.org/1999/xlink" x="0px" y="0px"
	 viewBox="0 0 1080 1080" style="enable-background:new 0 0 1080 1080;" xml:space="preserve">
<style type="text/css">
	.st0{fill:none;stroke:#496AEF;stroke-width:8;stroke-miterlimit:10;}
</style>
<g>
	<g>
		<path class="st0" d="M526,579.2c0-8.1-0.2-13.5,0.1-18.9c0.2-4.4-1.1-6.4-6-6.3c-14.5,0.3-29,0.3-43.4,0c-4.6-0.1-6.1,1.3-6.1,6
			c0.1,73.8,0.1,147.5,0,221.3c0,4.8,1.6,6,6.1,5.9c14.2-0.2,28.4-0.4,42.6,0c5.6,0.2,6.9-1.9,6.8-7c-0.2-24.9-0.2-49.7-0.1-74.6
			c0.1-21.6-0.4-43.2,0.6-64.7c0.8-17.7,10.7-30.2,26.8-37c19.2-8.1,38.3-7.4,56.6,3.1c2.4,1.4,4.4,4,7.8,0.8
			c12.8-12.3,25.7-24.3,39.3-37c-18.6-13-36.8-19-56.6-19.4C573.3,551,548.2,557.8,526,579.2z"/>
		<path class="st0" d="M149.4,619.6c33.2-26.3,66.6-52.2,101.9-75.7c83-55.2,171.3-99.2,268.3-124.1c6-1.5,6.1-5.5,6.9-9.5
			c4.4-21.8,5.1-43.9,5.9-66c0.4-12,1.5-24,2.1-35.9c0.3-6.7,2.4-12.7,5.4-18.6c2.7,0,5.5,0,8.2,0c21.3,19.7,31.3,46.1,42.8,71.6
			c5.1,11.4,10.5,22.8,15,34.5c2.4,6.4,6,7.6,12.4,7c34.3-3.6,68.6-3.3,103-0.2c65.7,5.9,128,23.7,187.6,51.6
			c33.5,15.7,65.1,34.4,95.4,55.5c2.2,1.5,4.9,2.5,6.5,6c-221.7-56.2-438.8-41.7-652.4,36.7c22.1,5,41.7,14,58.3,29.5
			c15.5,14.5,24.1,32,26.8,52.9c3.2,25.1,3.3,50.1-0.5,75.1c-5.6,37.6-37.1,68.1-78.6,77c-4.4,0.9-9.2,0.4-13.1,3.2
			c-13.1,0-26.3,0-39.4,0c-5.4-3.6-11.9-3-17.7-4.8c-37.1-11.9-64-33.7-71.9-73.8c-3.7-18.9-2.5-38.1-2.4-57.2
			c0.1-14.1,2.8-27.8,7.1-42.6c-3.9,1.9-6.3,3.1-8.7,4.4c-49.1,26.6-95.8,56.7-140.7,89.8c-24.6,18.1-48,37.8-71.9,56.9
			c-0.6-0.4-1.2-0.9-1.8-1.3c12.8-15.7,26.9-30.1,40.9-44.6C77.7,682.5,113.3,650.7,149.4,619.6z M275.7,670.6c-0.2,0-0.4,0-0.7,0
			c0,3-0.1,6,0,9c0.6,12.5,0.4,25.2,6.6,36.7c11.5,21.2,38.6,31.1,67.2,24.7c24.5-5.5,38.4-22,40.2-47c1.1-15.3,1.1-30.5,0-45.7
			c-1.9-25.9-16-42.5-41.4-47.8c-9.7-2-19.5-2.1-29.2-0.3c-25.9,4.9-41.2,22.1-42.7,48.5C275.3,655.9,275.7,663.2,275.7,670.6z"/>
		<path class="st0" d="M935.3,790.2c-10.3-3.3-21.2-4.1-31.3-8.3c-22.7-9.3-40-23.7-45.8-48.6c-7.6-33.1,9.6-63,43-76.1
			c15.5-6.1,31.8-7.7,48.2-7.8c21.9-0.2,43.7-0.2,65.6,0.1c5.3,0.1,7.5-1.2,7-6.8c-0.4-5.2,0-10.4-0.1-15.6
			c-0.2-15.1-6.2-23.5-21-27.3c-21.2-5.4-42.8-5.1-64.2-1c-7.3,1.4-14,5-18.9,10.8c-2.8,3.3-5,3.9-8.8,1.3
			c-11.3-7.7-22.7-15.1-34.3-22.3c-4.1-2.6-3.6-4.1-0.6-7.2c14.8-15.5,33.3-23.8,53.9-27.1c30.2-4.9,60.4-4,90.3,3.1
			c28.7,6.9,49.7,22.6,58,52.3c0,59.1,0,118.1,0,177.2c-16.3,0.1-32.6,0-48.9,0.3c-4.3,0.1-5.8-1.3-5.5-5.6
			c0.3-4.4,0.1-8.9,0.1-15.6c-10.3,13-22.3,18.6-36,21.4c-3.2,0.6-7.1-0.4-9.7,2.7C962.6,790.2,948.9,790.2,935.3,790.2z
			 M982.3,688.7c-10.1,0-20.2-0.1-30.3,0c-9.9,0.2-19.6,1.5-28.6,6c-8.3,4.1-13.8,10.4-14.4,20.2c-0.6,10.2,4.4,17.3,12.5,22.2
			c3.9,2.4,8.3,4.2,12.7,5.3c20.5,5.1,41.2,4.4,61.7,0.7c16.6-2.9,22.5-10,25.2-26.6c1.2-7.3,0.3-14.7,0.9-22c0.3-4.9-1.8-6-6.2-5.9
			C1004.6,688.9,993.5,688.7,982.3,688.7z"/>
		<path class="st0" d="M731.8,790.2c-7.6-3.6-16.1-3.9-24.1-6.3c-46.6-14-75.7-49.9-79.1-98.6c-1.4-20.3-0.3-40.5,6.4-59.9
			c12.8-36.5,38.8-58.8,75.6-68.3c49.1-12.8,94.1-4.7,133.7,28.5c5.7,4.8,6.6,7.7-0.2,12.2c-9.7,6.5-19,13.8-28.1,21.2
			c-4.2,3.4-6.4,3.4-10.7-0.3c-26.2-22.9-56-25.2-87.3-13c-18,7-27.6,21.9-31.7,40.1c-3.8,16.7-3.8,33.7,0.1,50.4
			c6.5,28.2,27.9,44.4,59,46.4c23.3,1.5,43.8-4.6,61-20.5c3.6-3.3,5.7-2.6,8.9,0c10.1,7.9,20.2,16,30.7,23.3c5.4,3.7,3.6,5.9,0,9
			c-21.4,19-46.1,30.9-74.7,34.4c-1.3,0.2-2.8-0.1-3.5,1.4C755.9,790.2,743.8,790.2,731.8,790.2z"/>
		<path class="st0" d="M526,579.2c22.2-21.5,47.2-28.3,74.5-27.8c19.8,0.4,38,6.3,56.6,19.4c-13.5,12.7-26.5,24.7-39.3,37
			c-3.3,3.2-5.4,0.6-7.8-0.8c-18.4-10.5-37.4-11.2-56.6-3.1c-16.2,6.8-26,19.3-26.8,37c-1,21.5-0.5,43.1-0.6,64.7
			c-0.1,24.9-0.1,49.7,0.1,74.6c0,5.2-1.2,7.2-6.8,7c-14.2-0.4-28.4-0.3-42.6,0c-4.5,0.1-6.1-1.1-6.1-5.9
			c0.1-73.8,0.1-147.5,0-221.3c0-4.7,1.5-6.1,6.1-6c14.5,0.2,29,0.3,43.4,0c4.9-0.1,6.2,1.9,6,6.3C525.9,565.8,526,571.2,526,579.2z
			"/>
	</g>
</g>
</svg>
