<svg xmlns="http://www.w3.org/2000/svg" viewBox="0 0 139.569 139.568"><defs><style>.a,.b,.c,.d{fill:none;}.a,.b{stroke:#496aef;}.b{stroke-linecap:round;}.b,.c{stroke-miterlimit:10;}.c{stroke:#fff;}</style></defs><g transform="translate(0.5 0.5)"><circle class="a" cx="69.284" cy="69.284" r="69.284"/><path class="b" d="M64,16.5a59.837,59.837,0,0,1,59.837,59.837" transform="translate(5.284 -7.052)"/><path class="c" d="M64,16.5" transform="translate(5.284 -7.052)"/><path class="b" d="M76.337,123.837A59.837,59.837,0,0,1,16.5,64" transform="translate(-7.052 5.284)"/><path class="b" d="M74,112.5A48.5,48.5,0,0,1,25.5,64" transform="translate(-4.715 5.284)"/><path class="b" d="M64,25.5A48.5,48.5,0,0,1,112.5,74" transform="translate(5.284 -4.715)"/><path class="c" d="M64,94.5" transform="translate(5.284 13.206)"/><path class="b" d="M64,33.5a38.434,38.434,0,0,1,38.421,38.421" transform="translate(5.284 -2.637)"/><path class="b" d="M71.921,102.421A38.434,38.434,0,0,1,33.5,64" transform="translate(-2.637 5.284)"/><path class="b" d="M64,43.5A25.824,25.824,0,0,1,89.824,69.324" transform="translate(5.284 -0.04)"/><path class="c" d="M64,43.5" transform="translate(5.284 -0.04)"/><path class="b" d="M69.324,89.824A25.824,25.824,0,0,1,43.5,64" transform="translate(-0.04 5.284)"/><path class="a" d="M13.227,0A13.227,13.227,0,1,1,0,13.227,13.227,13.227,0,0,1,13.227,0Z" transform="translate(56.057 56.057)"/><circle class="d" cx="13.227" cy="13.227" r="13.227" transform="translate(56.057 56.057)"/></g></svg>