<svg xmlns="http://www.w3.org/2000/svg" viewBox="0 0 125.833 140.429"><defs><style>.a{fill:none;stroke:#496aef;fill-rule:evenodd;}</style></defs><g transform="translate(0.5 0.312)"><path class="a" d="M.029,82.125l6.63-4.032.05-11.811,2.859-3.006V31.642l-2.859-3V16.507L0,12.473Z" transform="translate(0 19.503)"/><path class="a" d="M46.736,28.322l-2.859,3V62.955l2.859,3.009V78.087l6.58,3-.252-68.416L46.736,16.7Z" transform="translate(71.514 19.822)"/><path class="a" d="M24.105.507l.039,7.059L34.7,12.983l1.389,3.924,28.04,14.128,3.94-1.239,10.68,5.52,5.946-3.861Z" transform="translate(39.288)"/><path class="a" d="M61.239.507.35,30.84l6.506,4.118L17.284,29.8l3.937,1.239L49.266,16.907l1.383-3.924,10.5-5.418Z" transform="translate(0.57)"/><path class="a" d="M.321,42.11,61.287,72.43l-.042-7.056L50.7,59.957,49.313,56.03,21.268,41.916l-3.937,1.239L7.085,37.742Z" transform="translate(0.523 60.688)"/><path class="a" d="M34.688,59.642l1.389-3.926L64.117,41.6l3.94,1.239,9.991-4.9,6.761,3.345L24.119,72.118l-.008-7.059Z" transform="translate(39.298 61.003)"/><path class="a" d="M62.543,137.931,122.154,1.107,87.75,28.886,62.043,97.076,35.005,28.445.157,1.094Z" transform="translate(0.256 0.957)"/><path class="a" d="M37.611,22.748l.037,50.6L14.515,10.53Z" transform="translate(23.658 16.336)"/><path class="a" d="M46.946,10.529,23.9,73.346l-.008-50.6Z" transform="translate(38.938 16.335)"/></g></svg>